<svg width="708" height="481" viewBox="0 0 708 481" fill="none" xmlns="http://www.w3.org/2000/svg">
<mask id="mask0_2_22" style="mask-type:alpha" maskUnits="userSpaceOnUse" x="0" y="0" width="767" height="481">
<path d="M0 171.386C0 76.7323 76.7323 0 171.386 0H766.933V481H171.386C76.7321 481 0 404.268 0 309.614V171.386Z" fill="#4CA772"/>
</mask>
<g mask="url(#mask0_2_22)">
<path d="M300.497 -106.855C300.497 -106.855 245.802 -51.3094 229.05 -3.6018C207.047 59.0593 250.311 106.292 229.05 169.287C210.787 223.398 185.679 246.867 147.096 284.546C100.49 330.059 8.40503 368.589 8.40503 368.589" stroke="white" stroke-opacity="0.15"/>
<path d="M606.247 -54.0276C606.247 -54.0276 551.553 1.51758 534.8 49.2252C512.798 111.886 556.061 159.119 534.8 222.114C516.538 276.225 491.43 299.694 452.847 337.373C406.241 382.886 314.156 421.416 314.156 421.416" stroke="white" stroke-opacity="0.15"/>
<path d="M300.497 -106.855C300.497 -106.855 245.802 -51.3094 229.05 -3.6018C207.047 59.0593 250.311 106.292 229.05 169.287C210.787 223.398 185.679 246.867 147.096 284.546C100.49 330.059 8.40503 368.589 8.40503 368.589" stroke="white" stroke-opacity="0.15"/>
<path d="M229.05 -158.481C229.05 -158.481 174.355 -102.936 157.603 -55.2283C135.6 7.43287 178.864 54.6654 157.603 117.66C139.34 171.771 114.232 195.24 75.649 232.919C29.0433 278.433 -63.042 316.962 -63.042 316.962" stroke="white" stroke-opacity="0.15"/>
<path d="M606.247 -54.0276C606.247 -54.0276 551.553 1.51758 534.8 49.2252C512.798 111.886 556.061 159.119 534.8 222.114C516.538 276.225 491.43 299.694 452.847 337.373C406.241 382.886 314.156 421.416 314.156 421.416" stroke="white" stroke-opacity="0.15"/>
<path d="M335.169 -90.046C335.169 -90.046 280.475 -34.5009 263.722 13.2068C241.72 75.8679 284.983 123.101 263.722 186.095C245.46 240.206 220.352 263.675 181.769 301.354C135.163 346.868 43.0776 385.397 43.0776 385.397" stroke="white" stroke-opacity="0.15"/>
<path d="M640.92 -37.219C640.92 -37.219 586.225 18.3262 569.473 66.0338C547.47 128.695 590.734 175.928 569.473 238.922C551.211 293.033 526.103 316.502 487.519 354.181C440.914 399.695 348.828 438.224 348.828 438.224" stroke="white" stroke-opacity="0.15"/>
<path d="M335.169 -90.046C335.169 -90.046 280.475 -34.5009 263.722 13.2068C241.72 75.8679 284.983 123.101 263.722 186.095C245.46 240.206 220.352 263.675 181.769 301.354C135.163 346.868 43.0776 385.397 43.0776 385.397" stroke="white" stroke-opacity="0.15"/>
<path d="M640.92 -37.219C640.92 -37.219 586.225 18.3262 569.473 66.0338C547.47 128.695 590.734 175.928 569.473 238.922C551.211 293.033 526.103 316.502 487.519 354.181C440.914 399.695 348.828 438.224 348.828 438.224" stroke="white" stroke-opacity="0.15"/>
<path d="M267.925 -138.071C267.925 -138.071 213.23 -82.5254 196.478 -34.8177C174.475 27.8434 217.739 75.076 196.478 138.071C178.216 192.182 153.108 215.651 114.525 253.33C67.9188 298.843 -24.1665 337.373 -24.1665 337.373" stroke="white" stroke-opacity="0.15"/>
<path d="M573.676 -85.2437C573.676 -85.2437 518.981 -29.6985 502.229 18.0092C480.226 80.6703 523.49 127.903 502.229 190.898C483.966 245.009 458.858 268.478 420.275 306.157C373.67 351.67 281.584 390.2 281.584 390.2" stroke="white" stroke-opacity="0.15"/>
<path d="M267.925 -138.071C267.925 -138.071 213.23 -82.5254 196.478 -34.8177C174.475 27.8434 217.739 75.076 196.478 138.071C178.216 192.182 153.108 215.651 114.525 253.33C67.9188 298.843 -24.1665 337.373 -24.1665 337.373" stroke="white" stroke-opacity="0.15"/>
<path d="M196.478 -189.697C196.478 -189.697 141.784 -134.152 125.032 -86.4442C103.029 -23.7831 146.292 23.4495 125.032 86.4442C106.769 140.555 81.661 164.024 43.0777 201.703C-3.52796 247.217 -95.6133 285.746 -95.6133 285.746" stroke="white" stroke-opacity="0.15"/>
<path d="M573.676 -85.2437C573.676 -85.2437 518.981 -29.6985 502.229 18.0092C480.226 80.6703 523.49 127.903 502.229 190.898C483.966 245.009 458.858 268.478 420.275 306.157C373.67 351.67 281.584 390.2 281.584 390.2" stroke="white" stroke-opacity="0.15"/>
<path d="M387.704 -90.046C387.704 -90.046 333.009 -34.5009 316.257 13.2068C294.254 75.8679 337.518 123.101 316.257 186.095C297.994 240.206 272.887 263.675 234.303 301.354C187.698 346.868 95.6123 385.397 95.6123 385.397" stroke="white" stroke-opacity="0.15"/>
<path d="M693.455 -37.219C693.455 -37.219 638.76 18.3262 622.008 66.0338C600.005 128.695 643.269 175.928 622.008 238.922C603.745 293.033 578.637 316.502 540.054 354.181C493.448 399.695 401.363 438.224 401.363 438.224" stroke="white" stroke-opacity="0.15"/>
<path d="M387.704 -90.046C387.704 -90.046 333.009 -34.5009 316.257 13.2068C294.254 75.8679 337.518 123.101 316.257 186.095C297.994 240.206 272.887 263.675 234.303 301.354C187.698 346.868 95.6123 385.397 95.6123 385.397" stroke="white" stroke-opacity="0.15"/>
<path d="M693.455 -37.219C693.455 -37.219 638.76 18.3262 622.008 66.0338C600.005 128.695 643.269 175.928 622.008 238.922C603.745 293.033 578.637 316.502 540.054 354.181C493.448 399.695 401.363 438.224 401.363 438.224" stroke="white" stroke-opacity="0.15"/>
<path d="M427.63 -66.0338C427.63 -66.0338 372.935 -10.4886 356.183 37.219C334.18 99.8801 377.444 147.113 356.183 210.107C337.92 264.219 312.813 287.687 274.229 325.366C227.624 370.88 135.538 409.409 135.538 409.409" stroke="white" stroke-opacity="0.15"/>
<path d="M733.381 -13.2068C733.381 -13.2068 678.686 42.3384 661.934 90.046C639.931 152.707 683.195 199.94 661.934 262.934C643.671 317.046 618.563 340.514 579.98 378.193C533.374 423.707 441.289 462.236 441.289 462.236" stroke="white" stroke-opacity="0.15"/>
<path d="M427.63 -66.0338C427.63 -66.0338 372.935 -10.4886 356.183 37.219C334.18 99.8801 377.444 147.113 356.183 210.107C337.92 264.219 312.813 287.687 274.229 325.366C227.624 370.88 135.538 409.409 135.538 409.409" stroke="white" stroke-opacity="0.15"/>
<path d="M733.381 -13.2068C733.381 -13.2068 678.686 42.3384 661.934 90.046C639.931 152.707 683.195 199.94 661.934 262.934C643.671 317.046 618.563 340.514 579.98 378.193C533.374 423.707 441.289 462.236 441.289 462.236" stroke="white" stroke-opacity="0.15"/>
<path d="M477.013 -42.0215C477.013 -42.0215 422.318 13.5237 405.566 61.2313C383.563 123.892 426.827 171.125 405.566 234.12C387.303 288.231 362.195 311.7 323.612 349.379C277.006 394.892 184.921 433.422 184.921 433.422" stroke="white" stroke-opacity="0.15"/>
<path d="M782.763 10.8055C782.763 10.8055 728.068 66.3507 711.316 114.058C689.313 176.719 732.577 223.952 711.316 286.947C693.054 341.058 667.946 364.527 629.363 402.206C582.757 447.719 490.672 486.249 490.672 486.249" stroke="white" stroke-opacity="0.15"/>
<path d="M477.013 -42.0215C477.013 -42.0215 422.318 13.5237 405.566 61.2313C383.563 123.892 426.827 171.125 405.566 234.12C387.303 288.231 362.195 311.7 323.612 349.379C277.006 394.892 184.921 433.422 184.921 433.422" stroke="white" stroke-opacity="0.15"/>
<path d="M782.763 10.8055C782.763 10.8055 728.068 66.3507 711.316 114.058C689.313 176.719 732.577 223.952 711.316 286.947C693.054 341.058 667.946 364.527 629.363 402.206C582.757 447.719 490.672 486.249 490.672 486.249" stroke="white" stroke-opacity="0.15"/>
<path d="M519.04 -24.0123C519.04 -24.0123 464.345 31.5328 447.593 79.2405C425.59 141.902 468.854 189.134 447.593 252.129C429.331 306.24 404.223 329.709 365.64 367.388C319.034 412.901 226.948 451.431 226.948 451.431" stroke="white" stroke-opacity="0.15"/>
<path d="M824.791 28.8147C824.791 28.8147 770.096 84.3599 753.344 132.068C731.341 194.729 774.605 241.961 753.344 304.956C735.081 359.067 709.973 382.536 671.39 420.215C624.784 465.728 532.699 504.258 532.699 504.258" stroke="white" stroke-opacity="0.15"/>
<path d="M519.04 -24.0123C519.04 -24.0123 464.345 31.5328 447.593 79.2405C425.59 141.902 468.854 189.134 447.593 252.129C429.331 306.24 404.223 329.709 365.64 367.388C319.034 412.901 226.948 451.431 226.948 451.431" stroke="white" stroke-opacity="0.15"/>
<path d="M824.791 28.8147C824.791 28.8147 770.096 84.3599 753.344 132.068C731.341 194.729 774.605 241.961 753.344 304.956C735.081 359.067 709.973 382.536 671.39 420.215C624.784 465.728 532.699 504.258 532.699 504.258" stroke="white" stroke-opacity="0.15"/>
</g>
</svg>
